        <svg y="0" x="-375" viewBox="0 0 1 36">
            <style type="text/css">
                .st2 {
                    fill: url(#SVGID_2_);
                }

                .st3 {
                    fill: #FFFFFF;
                }
            </style>
            <linearGradient id="SVGID_2_" gradientUnits="userSpaceOnUse" x1="1.7959" y1="9.0079" x2="16.2782" y2="0.3061">
                <stop offset="0.3" style="stop-color:#FFFFFF" />
                <stop offset="0.45" style="stop-color:#FFFFFF;stop-opacity:0" />
                <stop offset="0.55" style="stop-color:#FFFFFF;stop-opacity:0" />
                <stop offset="0.7" style="stop-color:#FFFFFF" />
            </linearGradient>
            <path class="st2" d="M16.2,4.9c0.1-0.7-0.2-1.4-0.6-2l0,0c-0.5-0.6-1.2-0.9-2-0.9c-0.6,0-1.2,0.2-1.8,0.6C11.1,3,10.5,4.1,9.9,5.1
	L9.8,5.3C9.1,6.5,8.3,7.7,7.4,8.4C6.5,9,5.5,9.3,4.5,9.3C3.2,9.3,1.9,8.7,1,7.7c-0.8-1-1.1-2.2-1-3.4l1.9,0.2C1.8,5.1,2,5.8,2.5,6.4
	l0,0C3,7,3.7,7.3,4.5,7.3c0.6,0,1.2-0.2,1.8-0.6c0.6-0.5,1.2-1.5,1.8-2.5L8.3,4C9,2.8,9.7,1.6,10.7,0.9C11.6,0.3,12.5,0,13.6,0
	c1.4,0,2.6,0.6,3.5,1.7c0.8,1,1.1,2.2,1,3.4L16.2,4.9z" />
            <path class="st3" d="M18.1,4.2c0.1,1.2-0.3,2.5-1,3.4c-0.8,1.1-2.1,1.7-3.5,1.7c-1,0-2-0.3-2.9-0.9C9.7,7.7,9,6.5,8.3,5.3L8.2,5.1
	c-0.6-1-1.2-2-1.8-2.5C5.8,2.2,5.1,2,4.5,2C3.7,2,3,2.3,2.5,2.9l0,0C2,3.5,1.8,4.2,1.9,4.9L0,5.1c-0.1-1.2,0.3-2.5,1-3.4
	C1.9,0.6,3.2,0,4.5,0c1,0,2,0.3,2.9,0.9c1,0.7,1.7,1.9,2.4,3.1l0.2,0.3c0.6,1,1.2,2,1.8,2.5c0.5,0.4,1.2,0.6,1.8,0.6
	c0.8,0,1.5-0.3,2-0.9l0,0c0.4-0.6,0.7-1.3,0.6-2L18.1,4.2z" />
        </svg>
