        <svg x="20px" y="290" viewBox="-1 0 220 110">
            <linearGradient id="SVGID_1_" gradientUnits="userSpaceOnUse" x1="135.4634" y1="26.0074" x2="172.6157" y2="3.684">
                <stop offset="0.3" style="stop-color:#FFFFFF" />
                <stop offset="0.45" style="stop-color:#FFFFFF;stop-opacity:0" />
                <stop offset="0.55" style="stop-color:#FFFFFF;stop-opacity:0" />
                <stop offset="0.7" style="stop-color:#FFFFFF" />
            </linearGradient>
            <path style="fill:url(#SVGID_1_);" d="M172.366,15.496c0.153-1.849-0.394-3.65-1.531-5.063l-0.065-0.087
	c-1.248-1.502-3.12-2.363-5.136-2.363c-1.61,0-3.2,0.526-4.598,1.521c-1.62,1.155-3.199,3.797-4.731,6.36l-0.401,0.671
	c-1.795,2.998-3.651,6.098-6.109,7.851c-2.214,1.575-4.755,2.407-7.349,2.407c-3.499,0-6.755-1.551-8.935-4.256
	c-1.983-2.465-2.926-5.584-2.655-8.782l4.857,0.441c-0.152,1.849,0.394,3.65,1.531,5.063l0.065,0.087
	c1.248,1.502,3.12,2.363,5.136,2.363c1.61,0,3.2-0.526,4.598-1.521c1.62-1.155,3.197-3.794,4.731-6.36l0.402-0.673
	c1.795-2.997,3.65-6.096,6.108-7.849c2.213-1.575,4.755-2.407,7.349-2.407c3.499,0,6.755,1.551,8.935,4.256
	c1.983,2.465,2.926,5.584,2.655,8.782L172.366,15.496z" />
            <path style="fill:#FFFFFF;" d="M177.223,13.755c0.272,3.198-0.671,6.317-2.655,8.782c-2.18,2.705-5.437,4.256-8.935,4.256
	c-2.594,0-5.135-0.832-7.349-2.407c-2.458-1.753-4.313-4.852-6.108-7.849l-0.402-0.673c-1.534-2.566-3.112-5.206-4.731-6.36
	c-1.398-0.995-2.988-1.521-4.598-1.521c-2.016,0-3.888,0.861-5.136,2.363l-0.065,0.087c-1.137,1.413-1.683,3.214-1.531,5.063
	l-4.857,0.441c-0.272-3.198,0.671-6.317,2.655-8.782c2.18-2.705,5.437-4.256,8.935-4.256c2.594,0,5.135,0.832,7.349,2.407
	c2.458,1.753,4.314,4.854,6.109,7.851l0.401,0.671c1.532,2.564,3.111,5.205,4.731,6.36c1.397,0.995,2.987,1.521,4.598,1.521
	c2.016,0,3.888-0.861,5.136-2.363l0.065-0.087c1.137-1.413,1.684-3.214,1.531-5.063L177.223,13.755z" />
            <path style="fill:#FFFFFF;" d="M77.362,26.88c-8.932,0-12.138-6.383-12.169-11.849c-0.017-3.378,1.223-6.572,3.404-8.763
	c2.175-2.188,5.206-3.344,8.765-3.344c3.189,0,6.106,1.214,8.434,3.51l0.328,0.323l-1.869,1.799
	c-0.453,0.435-1.062,0.674-1.714,0.674c-0.462,0-0.915-0.126-1.31-0.364c-1.169-0.705-2.471-1.062-3.869-1.062
	c-2.142,0-3.876,0.654-5.155,1.943c-1.293,1.305-2.024,3.229-2.008,5.277c0.031,3.404,1.93,7.041,7.164,7.041
	c1.35,0,2.807-0.415,3.996-1.14l0.078-0.047c0.394-0.235,0.844-0.36,1.301-0.36c0.704,0,1.381,0.295,1.858,0.81l1.806,1.823
	l-0.321,0.316C83.814,25.7,80.799,26.88,77.362,26.88z" />
            <path style="fill:#FFFFFF;" d="M102.613,26.406v-8.938h-9.934v8.938h-5.069V5.93c0-1.397,1.137-2.533,2.534-2.533
	c1.396,0,2.532,1.136,2.532,2.533l0.003,6.785h9.934l0.003-6.787c0-1.396,1.137-2.531,2.534-2.531c1.397,0,2.533,1.136,2.533,2.533
	v20.476H102.613z" />
            <path style="fill:#FFFFFF;" d="M191.73,26.376l-7.768-8.149v8.148h-5.068L178.89,5.888c0-1.395,1.134-2.53,2.529-2.53
	c1.395,0,2.531,1.134,2.531,2.527l0.015,6.105l7.032-7.822c0.45-0.517,1.102-0.811,1.791-0.811c1.312,0,2.379,1.067,2.379,2.379
	c0,0.579-0.208,1.135-0.586,1.567l-7.102,7.704l10.946,11.374L191.73,26.376z" />
            <path style="fill:#FFFFFF;" d="M53.806,26.376V8.055l-7.014-0.004l0.004-2.152c0-1.396,1.137-2.531,2.533-2.531l14.028-0.005
	c1.398,0,2.535,1.136,2.535,2.532l0.002,2.153l-7.018,0.007v18.321H53.806z" />
            <path style="fill:#FFFFFF;" d="M42.074,5.712c-0.632-1.425-2.048-2.347-3.606-2.347c-1.548,0-2.958,0.911-3.593,2.321l-9.29,20.69
	h5.502l1.895-4.17h10.979l1.863,4.17h5.535L42.074,5.712z M35.053,17.422l3.419-7.839l3.42,7.839H35.053z" />
            <path style="fill:#FFFFFF;" d="M19.308,26.374V11.223l-6.366,8.707h-1.508l-6.365-8.706v15.15H0V6.333
	c0-1.898,1.531-3.442,3.413-3.442c1.124,0,2.176,0.556,2.814,1.489l5.961,8.205l5.967-8.214c0.635-0.929,1.682-1.48,2.807-1.48
	c1.883,0,3.415,1.544,3.415,3.442v20.042H19.308z" />
            <path style="fill:#FFFFFF;" d="M127.816,14.492l-0.171-0.181l0.145-0.202c0.72-1.006,1.154-2.181,1.253-3.397
	c0.155-1.89-0.469-3.702-1.759-5.101c-1.34-1.455-3.265-2.289-5.282-2.289h-9.286c-1.442,0-2.616,1.173-2.616,2.616v20.435
	l12.592-0.003c3.887,0,7.049-3.163,7.049-7.051C129.74,17.523,129.057,15.809,127.816,14.492z M115.105,8.034h6.843
	c1.165,0,2.113,0.948,2.113,2.114c0,1.166-0.948,2.114-2.112,2.114l-6.844,0.001V8.034z M122.399,21.656l-7.294,0.002V16.98h7.292
	c1.289,0,2.338,1.049,2.338,2.338C124.735,20.607,123.687,21.656,122.399,21.656z" />
        </svg>
