<?xml version="1.0" encoding="UTF-8"?>
<svg width="41px" height="48px" viewBox="0 0 41 48" version="1.1" xmlns="http://www.w3.org/2000/svg" xmlns:xlink="http://www.w3.org/1999/xlink">
    <!-- Generator: sketchtool 41.2 (35397) - http://www.bohemiancoding.com/sketch -->
    <title>45446CBC-5B74-4F8F-B551-6CAEF187E167</title>
    <desc>Created with sketchtool.</desc>
    <defs></defs>
    <g id="Page-1" stroke="none" stroke-width="1" fill="none" fill-rule="evenodd">
        <g id="Podcast-Single-Page" transform="translate(-26.000000, -13.000000)" fill="#FEFEFE">
            <g id="Header">
                <g id="Left">
                    <g id="M-Podcast" transform="translate(26.000000, 13.000000)">
                        <g id="Layer_1">
                            <path d="M8.49764401,14.3982353 L8.49764401,39.8523529 L0.0278982875,39.8523529 C0.0183082512,39.6617647 0.00174364297,39.4888235 0.00174364297,39.3158824 C0.000581214323,28.2441176 0,17.1723529 0,6.10058824 C0,3.11382353 1.84128697,0.737647059 4.64070576,0.210882353 C7.00072652,-0.230294118 8.95011936,0.581470588 10.3677011,2.53764706 C13.5934406,6.98294118 16.7773326,11.4494118 19.9786611,15.9123529 C20.1059471,16.0888235 20.2349766,16.2652941 20.4014946,16.4982353 C20.5252932,16.3367647 20.6299118,16.2079412 20.7258121,16.0738235 C23.9637571,11.5658824 27.1868812,7.05 30.4396471,2.55882353 C31.9034354,0.529411765 33.9138557,-0.289411765 36.3261858,0.249705882 C38.7236949,0.784411765 40.1622003,2.38852941 40.710576,4.80352941 C40.7957666,5.22109377 40.8349474,5.64693085 40.8274001,6.07323529 C40.8332122,17.1597059 40.8349559,28.2461765 40.832631,39.3326471 L40.832631,39.8488235 L32.3306279,39.8488235 L32.3306279,14.4370588 L32.2068293,14.3991176 L21.6830721,28.9658824 L19.1408407,28.9658824 L8.59180073,14.3664706 L8.49764401,14.3982353 Z" id="Shape"></path>
                            <path d="M12.5228438,47.8738235 L12.5228438,41.9117647 C13.7120083,41.9832353 14.900301,41.9276471 16.0336689,42.1544118 C17.4965854,42.4473529 18.2620446,43.7594118 18.1051168,45.3220588 C17.9647535,46.7214706 16.8575402,47.7679412 15.3205189,47.8667647 C14.4103373,47.9223529 13.4940529,47.8738235 12.5228438,47.8738235 Z M14.025864,43.2123529 L14.025864,46.6605882 C14.8645563,46.6332353 15.7477115,46.8908824 16.3039336,46.0111765 C16.7206642,45.3511765 16.7398443,44.6444118 16.3536274,43.9641176 C15.8218163,43.0261765 14.9220965,43.1832353 14.025864,43.2123529 L14.025864,43.2123529 Z" id="Shape"></path>
                            <path d="M8.55779969,41.9744118 C10.348521,41.9744118 11.7338454,43.2811765 11.7268708,44.9629412 C11.7198962,46.6447059 10.3398028,47.9717647 8.56913337,47.9735294 C6.7644629,47.9735294 5.39919045,46.6588235 5.41401142,44.9311765 C5.42796056,43.245 6.77928386,41.9744118 8.55779969,41.9744118 Z M10.1732849,44.9444118 C10.1663103,43.9738235 9.44880125,43.2141176 8.55779969,43.2273529 C7.64413077,43.2414706 6.91964712,44.0294118 6.93272444,45 C6.94580176,45.9405882 7.68249092,46.7170588 8.56826155,46.7223529 C9.46798132,46.7258824 10.1802595,45.9370588 10.1732849,44.9444118 Z" id="Shape"></path>
                            <path d="M28.5321017,46.8414706 L25.9680747,46.8414706 L25.5373949,47.8623529 L24.0125791,47.8623529 L26.5277841,42 L28.0866009,42 L30.5451375,47.8632353 L28.965397,47.8632353 L28.5321017,46.8414706 Z M28.096191,45.66 L27.3167826,43.6155882 L27.2095485,43.6235294 L26.4249092,45.66 L28.096191,45.66 Z" id="Shape"></path>
                            <path d="M30.6392942,47.0294118 L31.1623871,45.9617647 C31.7229683,46.2123529 32.2382148,46.4752941 32.7787442,46.6676471 C33.0399664,46.7556318 33.3198755,46.770269 33.5886663,46.71 C33.7852956,46.6460493 33.9412835,46.4930698 34.0106279,46.2961765 C34.0437571,46.155 33.8955475,45.8885294 33.7543124,45.8047059 C33.4709704,45.6379412 33.1379346,45.5602941 32.8258225,45.4438235 C32.486684,45.3167647 32.1283653,45.2258824 31.812766,45.0529412 C31.3276066,44.7930761 31.013601,44.2937487 30.9864126,43.7388854 C30.9592241,43.1840221 31.2228747,42.6557014 31.6802491,42.3485294 C32.310576,41.9073529 33.0280851,41.8341176 33.7656461,41.9223529 C34.4020758,41.9982353 35.0106072,42.165 35.587753,42.5647059 L35.0472237,43.7011765 C34.8791292,43.6108236 34.704216,43.5341123 34.5241308,43.4717647 C34.0274289,43.3296361 33.5225639,43.2185443 33.0123923,43.1391176 C32.8824909,43.1223529 32.64274,43.335 32.5965335,43.4867647 C32.5590451,43.6094118 32.6976648,43.8555882 32.8275662,43.9464706 C33.0359315,44.0929412 33.2992216,44.1635294 33.5433316,44.2544118 C33.9103684,44.3911765 34.2939699,44.49 34.6479294,44.655 C35.2843591,44.9514706 35.6348313,45.4632353 35.612164,46.1902941 C35.5894966,46.9173529 35.2364089,47.4202941 34.5921328,47.6973529 C34.2873379,47.8310011 33.9637557,47.9155533 33.6331292,47.9479412 C32.530275,48.0388235 31.5442449,47.7202941 30.6392942,47.0294118 Z" id="Shape"></path>
                            <path d="M1.52220031,46.2582353 L1.52220031,47.8517647 L0.0584120394,47.8517647 L0.0584120394,41.9735294 C0.509143747,41.9735294 0.952900882,41.9638235 1.39665802,41.9735294 C2.0330877,41.9902941 2.67736378,41.9664706 3.30420343,42.0617647 C4.36259471,42.2205882 4.93276596,42.9441176 4.94235599,44.0082353 C4.95194603,45.1261765 4.38090296,45.9185294 3.3477945,46.1091176 C2.76977686,46.2167647 2.17170732,46.2097059 1.52220031,46.2582353 Z M1.54399585,45.0388235 C2.02349766,45.0132353 2.47161391,45.0273529 2.90490919,44.9505882 C3.31902439,44.8808824 3.53174883,44.5270588 3.53174883,44.0682353 C3.53174883,43.6367647 3.34866632,43.2988235 2.92670472,43.2229412 C2.48120394,43.1435294 2.01826674,43.1638235 1.54399585,43.14 L1.54399585,45.0388235 Z" id="Shape"></path>
                            <path d="M23.1381422,46.0270588 L23.9750908,46.8264706 C23.0160872,48.1614706 20.8225843,48.3467647 19.520083,47.2438235 C18.2820965,46.1955882 18.1338869,44.1988235 19.2070991,43.0164706 C20.4398547,41.6585294 22.6821796,41.6241176 23.9689881,42.9917647 L23.1494759,43.9676471 C22.6464349,43.5194118 22.1163674,43.1126471 21.4363467,43.2617647 C21.0589297,43.3467438 20.7114575,43.5340163 20.4311365,43.8035294 C19.8470161,44.3947059 19.8714271,45.4173529 20.4049818,46.0658824 C21.0326933,46.8308824 21.7955371,46.8211765 23.1381422,46.0270588 Z" id="Shape"></path>
                            <polygon id="Shape" points="39.1953503 47.8597059 37.7027919 47.8597059 37.7027919 43.2008824 35.9818163 43.2008824 35.9818163 42 40.9215568 42 40.9215568 43.1735294 39.1953503 43.1735294"></polygon>
                        </g>
                    </g>
                </g>
            </g>
        </g>
    </g>
</svg>